#!OML:ASF I:\Actors\actors\Patient Classification 1\Patient 1\Session 1\Subject1.ASF
:FULLY-SPECIFIED
:DEGREES
900
root -0.977328 17.6063 7.70922 9.21838 -0.0777469 -8.66407
lowerback 6.77899 4.58853 8.08728
upperback -10.2681 7.50951 0.550603
thorax -14.2562 2.72986 -5.23176
lowerneck -15.3045 -9.45794 -4.44951
upperneck 9.97883 -13.3151 10.2615
head 6.54743 -5.82962 2.5601
rclavicle -3.01159e-014 1.59028e-014
rhumerus 55.2456 -19.4862 -92.9106
rradius 17.889
rwrist 84.1101
rhand -29.5707 -59.5349
rfingers 7.12502
rthumb -2.90285 -89.4949
lclavicle -3.01159e-014 1.59028e-014
lhumerus -36.0325 28.8446 33.7947
lradius 108.774
lwrist 40.4978
lhand -35.409 -0.90372
lfingers 7.12502
lthumb -8.5395 28.9036
rfemur 0.393178 25.343 29.1412
rtibia -2.18184
rfoot -12.6609 -24.3533
rtoes 7.68425
lfemur 1.69214 -34.5104 -8.21052
ltibia -1.50946
lfoot -13.7331 40.7218
ltoes -2.92775
901
root -0.968906 17.6137 7.70612 9.26583 0.407771 -8.76286
lowerback 6.92531 4.52601 8.37578
upperback -10.3622 7.49662 0.592573
thorax -14.4443 2.68026 -5.36246
lowerneck -15.2235 -9.52612 -4.46178
upperneck 9.97297 -13.3963 10.1944
head 6.53336 -5.87736 2.5343
rclavicle 6.85807e-015 1.19271e-014
rhumerus 58.257 -20.1278 -94.7173
rradius 18.0635
rwrist 84.0682
rhand -30.2933 -59.6029
rfingers 7.12502
rthumb -3.60067 -89.5522
lclavicle 6.85807e-015 1.19271e-014
lhumerus -35.5645 29.1722 33.9929
lradius 108.763
lwrist 40.0171
lhand -35.5768 -1.01994
lfingers 7.12502
lthumb -8.70145 28.7807
rfemur 0.231435 25.263 29.2063
rtibia -2.06143
rfoot -12.8268 -24.6005
rtoes 8.13524
lfemur 1.28562 -34.3734 -7.8276
ltibia -1.45048
lfoot -13.18 40.2456
ltoes -3.69727
902
root -0.960886 17.6197 7.70537 9.36089 0.629819 -8.79146
lowerback 6.56344 4.60337 8.86116
upperback -10.1465 7.58824 0.445111
thorax -13.8643 2.70845 -5.74495
lowerneck -15.5635 -9.63953 -4.32436
upperneck 9.89312 -13.5648 10.2176
head 6.56981 -5.9409 2.4871
rclavicle 5.69518e-014 -3.57812e-015
rhumerus 60.6595 -18.8807 -94.0377
rradius 18.7572
rwrist 82.3809
rhand -31.1962 -58.6684
rfingers 7.12502
rthumb -4.47255 -88.6012
lclavicle 5.69518e-014 -3.57812e-015
lhumerus -34.0616 29.8419 34.8324
lradius 108.657
lwrist 39.3016
lhand -35.6998 -1.44
lfingers 7.12502
lthumb -8.82015 28.3557
rfemur -0.0132745 25.0748 29.1288
rtibia -1.90086
rfoot -12.8639 -24.5011
rtoes 8.15251
lfemur 1.11333 -34.5437 -7.71361
ltibia -1.51475
lfoot -12.9949 40.2999
ltoes -3.78897
903
root -0.953296 17.6249 7.70411 9.46277 0.635794 -8.78697
lowerback 6.62894 4.65263 9.05743
upperback -10.2369 7.69927 0.450361
thorax -13.9795 2.73013 -5.87489
lowerneck -15.5402 -9.62009 -4.16978
upperneck 10.0923 -13.5584 9.9963
head 6.60108 -5.94329 2.3938
rclavicle 9.19379e-015 1.03368e-014
rhumerus 61.6744 -16.2861 -91.484
rradius 19.7501
rwrist 79.9882
rhand -30.9192 -58.971
rfingers 7.12502
rthumb -4.20512 -88.9093
lclavicle 9.19379e-015 1.03368e-014
lhumerus -33.1072 30.1415 35.6088
lradius 108.762
lwrist 38.7394
lhand -35.7168 -2.01848
lfingers 7.12502
lthumb -8.83656 27.7765
rfemur -0.232588 24.9889 28.9964
rtibia -1.76561
rfoot -12.8803 -24.239
rtoes 8.27578
lfemur 1.11305 -34.9118 -7.7749
ltibia -1.63838
lfoot -13.0538 40.7525
ltoes -3.67376
904
root -0.945554 17.6287 7.70058 9.5853 0.470239 -8.76683
lowerback 6.90049 4.67747 9.13526
upperback -10.486 7.81427 0.55108
thorax -14.448 2.74175 -5.87182
lowerneck -15.2147 -9.55307 -4.20887
upperneck 10.3142 -13.4631 9.81813
head 6.59918 -5.91756 2.36606
rclavicle -4.37823e-014 -5.20816e-014
rhumerus 61.9962 -12.7247 -88.057
rradius 20.9812
rwrist 76.7496
rhand -30.4923 -59.2078
rfingers 7.12502
rthumb -3.79291 -89.1538
lclavicle -4.37823e-014 -5.20816e-014
lhumerus -32.4802 30.1459 36.3325
lradius 108.999
lwrist 38.3941
lhand -35.6798 -2.52901
lfingers 7.12502
lthumb -8.80082 27.2675
rfemur -0.43258 25.0807 28.8207
rtibia -1.71078
rfoot -12.9125 -23.9662
rtoes 8.72727
lfemur 1.1646 -35.356 -7.9009
ltibia -1.75479
lfoot -13.2794 41.3898
ltoes -3.20971
905
root -0.939274 17.6311 7.69409 9.74401 0.116872 -8.71257
lowerback 6.52582 4.82283 9.56102
upperback -10.2696 7.98514 0.427529
thorax -13.8509 2.81979 -6.20103
lowerneck -15.4194 -9.60334 -4.25297
upperneck 10.2654 -13.524 9.89698
head 6.63139 -5.93632 2.38177
rclavicle -1.14798e-014 -9.54166e-015
rhumerus 63.1069 -9.08291 -84.7496
rradius 22.2709
rwrist 72.9117
rhand -30.1174 -58.9322
rfingers 7.12502
rthumb -3.43085 -88.8843
lclavicle -1.14798e-014 -9.54166e-015
lhumerus -30.6957 30.5458 37.6871
lradius 109.102
lwrist 37.9788
lhand -35.6524 -2.8432
lfingers 7.12502
lthumb -8.77437 26.9544
rfemur -0.675877 25.2023 28.5707
rtibia -1.70113
rfoot -12.7894 -23.6175
rtoes 8.70775
lfemur 1.21361 -35.746 -8.06427
ltibia -1.83897
lfoot -13.7743 42.0741
ltoes -2.23467
906
root -0.933277 17.6318 7.68894 9.90184 -0.515913 -8.55889
lowerback 6.89478 4.92362 9.44203
upperback -10.5658 8.18982 0.490476
thorax -14.4381 2.87951 -6.16344
lowerneck -15.1993 -9.48883 -4.26626
upperneck 10.7439 -13.3639 9.53163
head 6.70845 -5.88154 2.29131
rclavicle -5.50634e-014 -3.10104e-014
rhumerus 63.4067 -5.11701 -81.8967
rradius 23.7355
rwrist 70.0826
rhand -29.0317 -58.4821
rfingers 7.12502
rthumb -2.38231 -88.4485
lclavicle -5.50634e-014 -3.10104e-014
lhumerus -30.0449 30.3511 38.5945
lradius 109.338
lwrist 37.5893
lhand -35.6487 -3.08848
lfingers 7.12502
lthumb -8.77082 26.7093
rfemur -0.956029 25.0685 28.1612
rtibia -1.67674
rfoot -12.4564 -22.8632
rtoes 8.09941
lfemur 1.44942 -36.146 -8.49972
ltibia -1.93924
lfoot -14.6161 42.9624
ltoes -0.920985
907
root -0.927414 17.6301 7.68577 9.98314 -1.36194 -8.37048
lowerback 6.73167 5.15488 9.699
upperback -10.3907 8.4703 0.263169
thorax -14.003 3.00701 -6.5566
lowerneck -15.3017 -9.4332 -3.76238
upperneck 10.4727 -13.2957 9.12406
head 6.56882 -5.86793 2.09863
rclavicle 4.39811e-014 4.81059e-014
rhumerus 64.4343 -1.53081 -79.9356
rradius 25.0363
rwrist 67.053
rhand -28.3918 -58.6037
rfingers 7.12502
rthumb -1.76435 -88.5761
lclavicle 4.39811e-014 4.81059e-014
lhumerus -28.4199 30.4406 39.8684
lradius 109.393
lwrist 37.1178
lhand -35.5312 -3.65914
lfingers 7.12502
lthumb -8.65743 26.1433
rfemur -1.15714 24.8297 27.7276
rtibia -1.6524
rfoot -12.069 -21.8431
rtoes 7.56909
lfemur 1.976 -36.603 -9.19432
ltibia -2.09945
lfoot -15.6266 44.062
ltoes 0.423377
908
root -0.924885 17.6278 7.68011 10.0147 -2.30869 -8.23045
lowerback 6.63871 5.36117 9.98015
upperback -10.1906 8.72727 0.0461336
thorax -13.5832 3.12352 -6.95034
lowerneck -15.5349 -9.33403 -3.48604
upperneck 10.3892 -13.1951 9.06239
head 6.55199 -5.80875 2.04253
rclavicle -8.34896e-015 3.57812e-015
rhumerus 65.4094 2.16531 -78.0137
rradius 25.5435
rwrist 64.2738
rhand -29.2914 -58.617
rfingers 7.12502
rthumb -2.63316 -88.5805
lclavicle -8.34896e-015 3.57812e-015
lhumerus -27.0452 30.3586 40.8879
lradius 109.446
lwrist 36.8019
lhand -35.4929 -4.17116
lfingers 7.12502
lthumb -8.62042 25.6328
rfemur -1.31503 24.6924 27.3981
rtibia -1.59616
rfoot -11.6937 -20.8275
rtoes 7.07404
lfemur 2.59039 -36.9192 -9.86545
ltibia -2.29524
lfoot -16.5342 45.1189
ltoes 1.56096
909
root -0.924642 17.6268 7.67293 10.0493 -3.3044 -8.11514
lowerback 6.76222 5.4739 10.0898
upperback -10.153 8.89466 -0.0399947
thorax -13.5558 3.18742 -7.13809
lowerneck -15.6407 -9.15899 -3.50877
upperneck 10.55 -12.9721 9.09684
head 6.61148 -5.69092 2.07666
rclavicle -1.08835e-014 -1.25234e-014
rhumerus 65.6009 5.69169 -78.4735
rradius 26.4635
rwrist 63.5474
rhand -29.2769 -58.0712
rfingers 7.12502
rthumb -2.61909 -88.0349
lclavicle -1.08835e-014 -1.25234e-014
lhumerus -26.4496 30.1297 41.4358
lradius 109.57
lwrist 36.6993
lhand -35.6365 -4.22157
lfingers 7.12502
lthumb -8.75902 25.5767
rfemur -1.5262 24.5134 27.0962
rtibia -1.47754
rfoot -11.3664 -19.745
rtoes 6.64582
lfemur 3.1157 -37.0162 -10.4515
ltibia -2.40233
lfoot -17.5056 45.9791
ltoes 2.73284
